<?xml version="1.0" standalone="no"?>
<!DOCTYPE svg PUBLIC "-//W3C//DTD SVG 20010904//EN"
 "http://www.w3.org/TR/2001/REC-SVG-20010904/DTD/svg10.dtd">
<svg version="1.0" xmlns="http://www.w3.org/2000/svg"
 width="300.000000pt" height="424.000000pt" viewBox="0 0 300.000000 424.000000"
 preserveAspectRatio="xMidYMid meet">
<metadata>
Created by potrace 1.10, written by Peter Selinger 2001-2011
</metadata>
<g transform="translate(0.000000,424.000000) scale(0.100000,-0.100000)"
fill="#ba1e71" stroke="none">
<path d="M936 3195 c-13 -34 -5 -54 38 -96 57 -54 96 -140 108 -238 12 -104
17 -123 28 -116 6 3 10 34 10 68 0 111 -41 221 -109 297 -43 48 -49 59 -28 61
90 7 121 -3 140 -48 33 -75 37 -143 32 -513 -2 -201 -4 -482 -4 -624 -1 -251
-2 -259 -19 -242 -18 16 -18 14 -10 -46 19 -145 64 -236 148 -302 43 -34 45
-34 52 -15 6 14 1 30 -16 52 -38 51 -66 113 -88 195 -19 73 -20 112 -23 697
-4 662 -7 735 -36 803 -30 69 -42 77 -134 80 -70 3 -83 1 -89 -13z m244 -1551
c0 -8 -5 -12 -10 -9 -6 4 -8 11 -5 16 9 14 15 11 15 -7z m20 -60 c0 -14 -4
-23 -9 -20 -5 3 -7 15 -4 26 7 28 13 25 13 -6z"/>
<path d="M660 3054 c-8 -3 -44 -20 -79 -37 -89 -44 -170 -135 -226 -252 -64
-133 -73 -164 -110 -370 -17 -90 -19 -260 -6 -332 5 -26 14 -79 21 -118 23
-132 80 -282 143 -375 38 -55 146 -160 165 -160 7 0 20 -6 27 -14 18 -18 105
-29 163 -20 94 14 193 88 266 198 55 83 91 176 69 176 -9 0 -53 -66 -53 -78 0
-28 -105 -163 -156 -200 -68 -50 -119 -66 -200 -59 -88 6 -153 50 -244 163
-39 47 -111 217 -136 319 -26 101 -28 126 -28 305 -1 200 5 253 47 395 42 144
97 243 182 326 68 68 126 94 205 93 62 0 86 -7 162 -50 37 -20 111 -104 146
-168 17 -29 38 -56 46 -59 13 -5 13 1 -3 44 -63 164 -279 312 -401 273z"/>
<path d="M2522 2985 c-13 -7 -29 -18 -35 -24 -6 -6 -18 -11 -27 -11 -20 0 -77
-27 -85 -40 -10 -16 14 -49 41 -56 13 -3 29 -14 34 -24 6 -12 10 -265 10 -665
0 -593 -1 -649 -17 -676 -10 -16 -25 -29 -34 -29 -26 0 -38 -22 -28 -49 8 -19
14 -22 37 -16 45 12 132 17 150 10 40 -17 63 -14 74 10 13 28 -4 58 -27 49 -7
-3 -23 5 -34 18 l-22 22 1 736 c0 404 0 741 0 748 0 15 -8 14 -38 -3z m2 -204
c-9 -203 -21 -251 -24 -93 -3 146 -3 146 -11 152 -3 3 -13 16 -22 29 -15 23
-15 25 1 38 16 12 16 13 -2 6 -12 -4 -17 -2 -13 3 3 6 22 10 41 10 l36 0 -6
-145z m-7 -743 c-2 -24 -4 -5 -4 42 0 47 2 66 4 43 2 -24 2 -62 0 -85z m0
-320 c-2 -24 -4 -5 -4 42 0 47 2 66 4 43 2 -24 2 -62 0 -85z m0 -70 c-3 -8 -6
-5 -6 6 -1 11 2 17 5 13 3 -3 4 -12 1 -19z m17 -175 c7 -17 -11 -26 -38 -19
-23 6 -23 7 -10 43 7 21 13 50 14 64 0 51 15 40 22 -18 5 -32 10 -63 12 -70z"/>
<path d="M665 2924 c-27 -8 -55 -16 -61 -17 -14 -3 -114 -79 -114 -87 0 -3
-16 -23 -36 -45 -20 -22 -43 -56 -51 -75 -8 -19 -24 -54 -34 -77 -10 -23 -19
-48 -19 -55 0 -8 -6 -22 -14 -33 -14 -21 -20 -58 -37 -230 -9 -99 -7 -149 12
-295 15 -114 77 -282 124 -337 77 -91 107 -119 158 -149 50 -29 68 -34 115
-33 73 2 148 37 209 98 49 50 123 156 123 178 0 7 5 13 10 13 6 0 10 8 10 18
0 9 9 40 19 67 21 55 28 85 43 190 12 82 4 342 -12 400 -35 124 -33 118 -83
225 -50 104 -141 199 -221 229 -33 12 -67 19 -78 15 -14 -4 -18 -2 -14 5 4 6
6 11 4 10 -2 0 -25 -7 -53 -15z m148 -54 c14 -11 30 -20 35 -20 22 0 125 -129
157 -195 109 -229 124 -542 39 -791 -25 -72 -36 -95 -76 -165 -24 -42 -112
-126 -155 -148 -58 -29 -148 -29 -204 1 -120 62 -220 230 -264 440 -19 93 -20
338 -1 433 30 153 92 289 168 368 30 31 60 57 65 57 6 0 16 6 23 14 14 18 37
23 121 25 53 1 72 -3 92 -19z"/>
<path d="M683 2703 c-12 -2 -27 -11 -33 -19 -7 -8 -18 -14 -25 -14 -29 0 -111
-121 -140 -205 -44 -130 -50 -333 -13 -462 20 -71 30 -94 70 -164 23 -42 83
-97 111 -104 15 -4 30 -11 33 -16 7 -12 71 -12 78 0 3 5 18 12 32 15 68 17
152 144 190 286 23 86 23 300 1 383 -57 207 -175 324 -304 300z m25 -144 l-3
-93 -32 -7 c-27 -5 -32 -3 -38 18 -10 40 48 204 66 186 5 -5 8 -52 7 -104z
m81 25 c16 -48 24 -92 21 -110 -4 -20 -8 -25 -14 -16 -6 10 -11 10 -22 1 -21
-18 -34 29 -34 127 0 108 14 107 49 -2z m-159 32 c0 -7 -4 -26 -9 -42 -5 -16
-14 -48 -21 -71 -9 -30 -19 -42 -36 -46 -27 -5 -34 0 -34 24 0 18 57 111 73
117 4 2 7 10 7 18 0 8 5 14 10 14 6 0 10 -6 10 -14z m258 -69 c41 -61 42 -86
3 -85 -32 1 -35 5 -64 103 -25 86 -7 80 61 -18z m-314 -165 c0 -18 -1 -57 -2
-87 l-2 -55 -44 0 c-25 0 -47 3 -49 8 -8 12 19 150 32 166 8 10 20 12 39 7 22
-6 27 -13 26 -39z m136 -52 c0 -53 -4 -90 -10 -91 -5 0 -26 -1 -45 -1 -19 0
-40 1 -46 1 -8 1 -9 26 -4 84 4 45 9 85 12 90 2 4 24 7 49 7 l44 0 0 -90z
m124 53 c9 -58 10 -132 3 -139 -6 -6 -46 -8 -87 -5 -11 1 -14 163 -3 174 3 4
23 7 44 7 35 0 38 -2 43 -37z m120 20 c14 -49 26 -147 19 -154 -4 -4 -26 -9
-48 -11 l-40 -3 -12 84 c-7 46 -10 88 -7 92 3 5 23 9 44 9 28 0 40 -5 44 -17z
m-385 -261 c10 -144 9 -147 -23 -150 -16 -2 -32 0 -37 5 -14 14 -38 157 -29
174 6 9 20 14 39 13 18 -1 32 4 35 12 9 23 11 17 15 -54z m138 -39 l-2 -108
-41 -3 c-47 -3 -48 -3 -60 105 -5 48 -3 66 10 84 9 13 16 18 16 11 0 -17 46
-15 62 3 7 8 14 14 15 15 1 0 1 -48 0 -107z m59 90 c20 -13 30 -14 44 -5 14 9
19 8 24 -4 8 -20 7 -109 0 -156 -6 -37 -7 -38 -48 -35 l-41 2 0 100 c0 55 -4
103 -10 107 -20 15 7 7 31 -9z m168 -11 c38 8 48 -16 36 -89 -17 -94 -24 -105
-68 -101 -42 3 -41 -2 -27 140 7 64 10 75 20 61 8 -10 21 -14 39 -11z m-326
-296 c28 -81 28 -90 2 -76 -11 6 -20 15 -20 21 0 5 -11 22 -25 37 -14 15 -25
32 -25 39 0 6 -3 18 -6 27 -5 12 1 16 23 16 27 0 31 -5 51 -64z m102 -27 c0
-78 -2 -90 -16 -87 -20 4 -70 138 -61 162 4 10 19 16 42 16 l35 0 0 -91z m100
64 c0 -47 -36 -148 -54 -151 -14 -3 -16 9 -16 81 0 46 3 87 7 90 3 4 19 7 35
7 24 0 28 -4 28 -27z m106 1 c-8 -29 -61 -105 -82 -117 -17 -10 -19 12 -3 62
25 78 27 81 60 81 28 0 31 -2 25 -26z"/>
<path d="M1563 2812 c-256 -2 -333 -5 -333 -15 -4 -89 3 -334 9 -344 14 -25
28 7 39 88 18 140 56 185 157 189 33 1 66 2 73 1 15 -1 17 -1121 2 -1189 -13
-53 -36 -79 -75 -84 -21 -2 -31 -9 -33 -23 -5 -41 8 -46 95 -34 45 7 89 8 100
4 10 -4 42 -8 72 -9 45 -1 55 2 61 19 10 28 2 45 -22 45 -36 0 -78 32 -83 65
-3 16 -4 296 -3 620 l3 590 69 -4 c39 -1 80 -10 92 -18 33 -21 60 -87 73 -178
19 -130 40 -126 46 8 8 178 7 259 -1 265 -5 4 -159 6 -341 4z m-219 -53 c-3
-5 0 -9 6 -9 6 0 8 -5 4 -11 -4 -8 -9 -7 -15 2 -9 15 -11 13 -47 -34 l-21 -28
1 43 c0 24 2 46 3 49 2 3 20 3 39 1 20 -2 33 -8 30 -13z m242 15 c20 -5 21 -8
8 -34 -12 -24 -14 -128 -12 -632 3 -567 4 -605 21 -630 l19 -27 -54 2 -54 2
13 27 c25 49 26 69 30 498 5 480 -5 766 -26 780 -13 8 -7 11 29 19 3 0 15 -2
26 -5z m277 -3 c4 0 7 -20 7 -43 l0 -42 -28 27 c-15 15 -34 27 -41 27 -7 0 -9
5 -6 10 3 6 0 10 -7 10 -10 0 -10 2 -1 8 11 7 47 8 76 3z"/>
<path d="M2093 2269 c-59 -17 -125 -103 -163 -212 -80 -225 -36 -530 93 -642
35 -31 46 -35 96 -35 52 0 60 3 95 38 53 50 96 120 96 153 0 35 -20 49 -34 25
-6 -10 -24 -31 -39 -47 -36 -36 -100 -40 -140 -9 -59 47 -107 173 -107 282 l0
70 157 -3 c177 -3 171 -6 172 82 2 113 -37 220 -98 268 -44 35 -82 44 -128 30z
m84 -35 c-3 -3 -12 -4 -19 -1 -8 3 -5 6 6 6 11 1 17 -2 13 -5z m-26 -57 c40
-33 60 -82 62 -147 1 -32 0 -60 -3 -63 -3 -3 -55 -7 -116 -9 l-110 -3 7 35
c14 73 43 142 73 175 36 40 52 42 87 12z m95 -33 c14 -24 24 -51 21 -58 -3 -8
-2 -16 3 -18 15 -5 17 -121 2 -126 -9 -3 -10 -8 -3 -15 7 -9 -1 -13 -27 -15
-19 -1 -32 1 -28 5 4 5 13 8 18 8 12 0 18 34 18 95 0 66 -12 115 -36 147 -17
22 -20 31 -9 27 8 -4 27 -26 41 -50z m-274 -201 c6 -8 5 -19 -3 -35 -15 -27
-29 -119 -17 -112 4 3 8 -10 8 -29 0 -37 42 -168 64 -201 45 -69 57 -75 124
-71 61 4 84 -7 40 -19 -16 -4 -19 -8 -11 -14 14 -9 -26 -44 -54 -48 -22 -4
-88 42 -116 80 -56 76 -76 160 -77 314 0 113 21 243 28 177 2 -16 8 -35 14
-42z m42 -34 c-7 -11 -34 -12 -34 -1 0 14 11 21 26 15 8 -3 11 -9 8 -14z"/>
<path d="M815 1273 c-44 -66 -24 -203 32 -211 25 -4 58 42 48 66 -6 15 -8 14
-17 -5 -6 -12 -17 -24 -24 -27 -29 -11 -50 79 -31 133 15 44 30 48 47 16 11
-21 15 -23 22 -10 11 18 -19 75 -39 75 -7 0 -24 -17 -38 -37z"/>
<path d="M1544 1298 c-3 -4 2 -18 10 -30 12 -16 16 -47 16 -111 0 -67 3 -88
13 -84 8 2 12 30 13 90 0 69 4 90 19 107 10 11 15 23 11 27 -10 10 -76 11 -82
1z"/>
<path d="M2422 1290 c0 -14 2 -19 5 -12 2 6 2 18 0 25 -3 6 -5 1 -5 -13z"/>
<path d="M376 1293 c-10 -11 -7 -221 4 -228 6 -4 10 22 10 69 0 79 12 100 25
44 6 -25 9 -28 12 -14 5 20 -24 123 -37 131 -4 2 -10 2 -14 -2z"/>
<path d="M447 1202 c-6 -100 -2 -142 14 -142 5 0 9 54 9 120 0 66 -4 120 -8
120 -5 0 -12 -44 -15 -98z"/>
<path d="M1858 1295 c-4 -6 -7 -49 -8 -95 -2 -120 -1 -130 10 -130 6 0 10 30
10 70 0 39 4 70 8 70 21 0 32 -29 32 -82 0 -32 4 -58 10 -58 13 0 13 111 0
145 -8 20 -15 25 -29 20 -17 -5 -20 0 -23 32 -2 21 -6 33 -10 28z"/>
<path d="M2160 1230 c0 -33 2 -60 5 -60 9 0 26 82 20 100 -12 39 -25 19 -25
-40z"/>
<path d="M1438 1257 c-9 -45 4 -197 16 -197 8 0 11 26 9 88 -1 48 -2 97 -3
110 0 29 -16 28 -22 -1z"/>
<path d="M2419 1218 c-3 -61 1 -151 6 -156 3 -3 5 38 5 91 0 53 -2 97 -5 97
-3 0 -6 -15 -6 -32z"/>
<path d="M515 1210 c-18 -34 -19 -75 -4 -119 9 -24 16 -31 33 -29 18 3 22 12
28 68 4 48 2 71 -8 88 -19 29 -30 28 -49 -8z m38 -57 c5 -51 2 -67 -14 -58
-11 8 -12 105 0 105 4 0 11 -21 14 -47z"/>
<path d="M936 1216 c-20 -32 -21 -84 0 -125 22 -44 45 -36 63 21 12 41 12 52
0 85 -18 46 -40 53 -63 19z m42 -66 c-3 -55 -18 -70 -29 -29 -9 36 0 79 18 79
11 0 13 -12 11 -50z"/>
<path d="M1045 1233 c-12 -10 -16 -163 -4 -163 5 0 9 21 9 48 0 55 9 92 21 92
5 0 9 -35 9 -77 0 -54 3 -74 10 -67 6 6 10 44 8 90 -3 70 -5 79 -23 82 -11 1
-24 -1 -30 -5z"/>
<path d="M1145 1231 c-13 -22 -7 -144 9 -159 19 -19 46 -9 46 18 0 28 29 25
40 -5 5 -14 16 -25 24 -25 23 0 36 33 36 90 0 88 -34 119 -64 58 -9 -17 -16
-44 -16 -60 0 -18 -5 -28 -15 -28 -7 0 -18 -7 -23 -16 -13 -24 -25 -1 -25 48
0 46 7 55 29 37 14 -11 15 -9 12 17 -2 21 -9 30 -25 32 -11 2 -24 -2 -28 -7z
m135 -81 c0 -38 -4 -50 -15 -50 -17 0 -20 25 -5 35 7 4 7 13 0 26 -11 20 -6
39 11 39 5 0 9 -22 9 -50z"/>
<path d="M1348 1233 c-11 -3 -19 -15 -20 -31 -4 -75 -3 -169 3 -187 5 -17 7
-16 13 10 4 17 16 35 28 40 34 16 49 74 34 127 -13 42 -24 50 -58 41z m37 -99
c-3 -24 -10 -44 -15 -44 -16 0 -23 70 -10 98 11 24 12 25 22 8 6 -10 7 -37 3
-62z"/>
<path d="M1666 1208 c-20 -40 -20 -76 0 -116 30 -61 61 -31 62 62 2 84 -32
114 -62 54z m41 -60 c-3 -67 -21 -65 -24 2 -1 37 2 50 12 50 11 0 14 -13 12
-52z"/>
<path d="M1766 1208 c-9 -17 -16 -43 -16 -58 0 -35 28 -90 45 -90 16 0 35 30
35 54 0 24 -17 19 -24 -6 -6 -23 -7 -23 -22 5 -10 18 -13 39 -9 58 7 29 29 39
38 17 3 -9 7 -7 12 5 21 50 -34 65 -59 15z"/>
<path d="M1971 1231 c-19 -12 -29 -137 -12 -154 12 -12 13 -9 16 59 4 97 35
96 35 -1 0 -35 5 -67 10 -70 7 -5 10 22 8 82 -3 79 -5 88 -23 91 -11 1 -27 -2
-34 -7z"/>
<path d="M2066 1215 c-20 -31 -21 -87 -1 -125 31 -59 65 -27 65 60 0 85 -31
116 -64 65z m47 -36 c7 -27 -2 -79 -14 -79 -21 0 -39 76 -22 93 13 14 31 6 36
-14z"/>
<path d="M2219 1218 c-25 -46 -7 -158 26 -158 8 0 24 20 35 45 l20 45 -20 45
c-23 49 -43 57 -61 23z m45 -41 c6 -27 -5 -76 -19 -79 -5 -2 -11 21 -13 50 -2
40 0 52 11 52 8 0 17 -10 21 -23z"/>
<path d="M2319 1213 c-10 -27 -6 -194 6 -213 12 -19 34 -10 49 22 20 38 22
188 4 206 -21 21 -48 14 -59 -15z m45 -36 c7 -29 -6 -79 -22 -85 -13 -4 -18
99 -6 111 10 10 21 0 28 -26z m-6 -134 c-5 -25 -28 -28 -28 -4 0 12 6 21 16
21 9 0 14 -7 12 -17z"/>
<path d="M2470 1221 c-5 -11 -10 -43 -10 -71 0 -60 13 -90 40 -90 20 0 28 25
32 95 3 69 -37 112 -62 66z m40 -41 c0 -11 -7 -20 -15 -20 -8 0 -15 9 -15 20
0 11 7 20 15 20 8 0 15 -9 15 -20z m5 -60 c0 -8 -8 -16 -17 -18 -13 -2 -18 3
-18 18 0 15 5 20 18 18 9 -2 17 -10 17 -18z"/>
<path d="M2572 1228 c-18 -18 -14 -49 8 -78 21 -27 26 -50 10 -50 -5 0 -14 8
-19 18 -9 15 -10 15 -11 -5 0 -56 42 -75 61 -26 14 37 2 83 -22 83 -10 0 -19
7 -19 15 0 9 9 15 21 15 14 0 19 5 17 17 -4 22 -29 28 -46 11z"/>
<path d="M590 1206 c0 -13 7 -37 15 -52 8 -16 15 -44 15 -63 0 -29 2 -32 15
-21 22 18 20 77 -4 85 -10 3 -18 11 -18 18 1 35 -4 57 -13 57 -5 0 -10 -11
-10 -24z"/>
<path d="M650 1190 c0 -39 13 -54 23 -27 7 18 -3 67 -14 67 -5 0 -9 -18 -9
-40z"/>
<path d="M692 1172 c-16 -42 -19 -65 -13 -87 10 -34 13 -30 35 63 18 73 19 82
7 82 -4 0 -18 -26 -29 -58z"/>
<path d="M2160 1105 c0 -19 4 -35 9 -35 15 0 18 45 4 58 -11 11 -13 6 -13 -23z"/>
</g>
</svg>
